<svg width="32" height="32" viewBox="0 0 32 32" fill="none" xmlns="http://www.w3.org/2000/svg">
<rect width="32" height="32" fill="#16161A"/>
<path d="M22.9219 22.1406C22.2891 22.8984 21.3945 23.4883 20.2383 23.9102C19.082 24.3242 17.8008 24.5312 16.3945 24.5312C14.918 24.5312 13.6211 24.2109 12.5039 23.5703C11.3945 22.9219 10.5352 21.9844 9.92578 20.7578C9.32422 19.5312 9.01562 18.0898 9 16.4336V15.2734C9 13.5703 9.28516 12.0977 9.85547 10.8555C10.4336 9.60547 11.2617 8.65234 12.3398 7.99609C13.4258 7.33203 14.6953 7 16.1484 7C18.1719 7 19.7539 7.48438 20.8945 8.45312C22.0352 9.41406 22.7109 10.8164 22.9219 12.6602H19.5C19.3438 11.6836 18.9961 10.9688 18.457 10.5156C17.9258 10.0625 17.1914 9.83594 16.2539 9.83594C15.0586 9.83594 14.1484 10.2852 13.5234 11.1836C12.8984 12.082 12.582 13.418 12.5742 15.1914V16.2812C12.5742 18.0703 12.9141 19.4219 13.5938 20.3359C14.2734 21.25 15.2695 21.707 16.582 21.707C17.9023 21.707 18.8438 21.4258 19.4062 20.8633V17.9219H16.207V15.332H22.9219V22.1406Z" fill="white"/>
</svg>
