<svg width="374" height="347" viewBox="0 0 374 347" fill="none" xmlns="http://www.w3.org/2000/svg">
<g clip-path="url(#clip0)">
<path d="M283.788 250.419C273.149 250.419 266.84 244.975 266.357 237.134H276.529C276.529 239.748 277.977 243.227 284.27 243.443C288.632 243.443 291.046 240.83 291.046 238.865C290.563 235.819 286.684 235.602 282.822 234.936C278.46 234.304 275.081 233.421 272.65 232.339C269.27 230.591 267.323 226.879 267.323 222.966C267.323 215.991 273.149 210.547 283.305 210.547C292.994 210.547 299.287 215.558 299.753 223.183H290.08C290.08 221.235 289.598 217.955 283.788 217.955C279.909 217.955 277.495 218.605 277.012 221.435C277.012 225.364 285.236 225.147 291.529 226.662C297.339 228.194 301.218 231.89 301.218 237.134C301.218 246.723 293.477 250.419 283.788 250.419Z" fill="#94A1B2"/>
<path d="M98.4311 186.083L131.827 166.688L149.74 197.42H104.724" fill="#94A1B2"/>
<path d="M168.657 249.262V210.472V249.262Z" fill="#94A1B2"/>
<path d="M168.657 249.262V210.472" stroke="#94A1B2" stroke-width="9.7723"/>
<path d="M82.9308 230.442C82.9308 236.535 88.2582 241.546 94.0517 241.546C100.361 241.546 105.189 236.535 105.189 230.442C105.189 224.565 100.361 219.338 94.0517 219.338C88.2582 219.338 82.9308 224.565 82.9308 230.442ZM93.5689 250.486C82.9308 250.486 73.7411 241.546 73.7411 230.442C73.7411 219.338 82.9308 210.614 93.5689 210.614C97.9307 210.614 101.81 211.713 105.189 214.094V211.047H114.878V249.604H105.189V247.207C102.292 249.388 97.9307 250.486 93.5689 250.486Z" fill="#94A1B2"/>
<path d="M222.828 197.412L176.363 116.37L209.759 96.7591L267.843 197.412" fill="#94A1B2"/>
<path d="M127.464 230.442C127.464 236.535 132.308 241.546 138.601 241.546C144.395 241.546 149.739 236.535 149.739 230.442C149.739 224.565 144.395 219.338 138.601 219.338C132.308 219.338 127.464 224.565 127.464 230.442ZM138.119 250.486C126.981 250.486 118.274 241.546 118.274 230.442C118.274 219.338 126.981 210.614 138.119 210.614C142.464 210.614 146.343 211.713 149.739 214.094V197.762H159.411V249.604H149.739V247.207C146.343 249.388 142.464 250.486 138.119 250.486Z" fill="#94A1B2"/>
<path d="M137.641 151.444L171.52 132.282L208.795 197.409H173.451V206.998H163.779V197.409" fill="#94A1B2"/>
<path d="M294.942 207.301C292.511 207.301 290.097 205.12 290.097 202.506C290.097 199.892 292.511 197.712 294.942 197.712C297.838 197.712 299.786 199.892 299.786 202.506C299.786 205.12 297.838 207.301 294.942 207.301ZM294.942 198.377C292.511 198.377 291.063 200.325 291.063 202.506C291.063 204.687 292.511 206.652 294.942 206.652C297.356 206.652 298.804 204.687 298.804 202.506C298.804 200.325 297.356 198.377 294.942 198.377Z" fill="#94A1B2"/>
<path d="M295.94 205.137L294.975 202.956H294.009V205.137H293.277V199.909H295.458C295.94 199.909 296.906 200.575 296.906 201.441C296.906 202.307 296.423 202.739 295.94 202.956L296.906 205.137H295.94ZM294.975 200.575H294.009V202.307H294.975C295.94 202.307 295.94 202.09 295.94 201.441C295.94 200.991 295.94 200.575 294.975 200.575Z" fill="#94A1B2"/>
<path d="M231.014 230.442C231.014 236.535 235.858 241.546 242.151 241.546C247.962 241.546 253.272 236.535 253.272 230.442C253.272 224.565 247.962 219.338 242.151 219.338C235.858 219.338 231.014 224.565 231.014 230.442ZM241.652 250.486C230.531 250.486 221.824 241.546 221.824 230.442C221.824 219.338 230.531 210.614 241.652 210.614C246.014 210.614 249.893 211.713 253.272 214.094V211.047H262.479V249.604H253.272V247.207C249.893 249.388 246.014 250.486 241.652 250.486Z" fill="#94A1B2"/>
<path d="M186.514 230.441C186.514 236.534 191.841 241.545 197.651 241.545C203.944 241.545 208.789 236.534 208.789 230.441C208.789 224.564 203.944 219.337 197.651 219.337C191.841 219.337 186.514 224.564 186.514 230.441ZM208.789 197.761H218.461V249.603H208.789V247.206C205.875 249.387 201.996 250.485 197.651 250.485C186.514 250.485 177.324 241.545 177.324 230.441C177.324 219.337 186.514 210.613 197.651 210.613C201.996 210.613 205.875 211.712 208.789 214.093V197.761Z" fill="#94A1B2"/>
</g>
<defs>
<clipPath id="clip0">
<rect width="229" height="154.893" fill="white" transform="translate(73 96)"/>
</clipPath>
</defs>
</svg>
