<svg width="375" height="347" viewBox="0 0 375 347" fill="none" xmlns="http://www.w3.org/2000/svg">
<path fill-rule="evenodd" clip-rule="evenodd" d="M93.5565 216.852C86.3732 216.567 80.4971 214.602 75.902 210.951C75.0248 210.254 72.9355 208.162 72.2344 207.281C70.3708 204.937 69.1045 202.657 68.2594 200.127C65.6592 192.339 66.9978 182.119 72.0871 170.904C76.4451 161.302 83.169 151.778 94.9005 138.588C96.6288 136.647 101.774 130.971 101.808 130.971C101.82 130.971 101.54 131.457 101.186 132.048C98.1362 137.158 95.5259 143.176 94.1043 148.385C91.8201 156.745 92.096 163.92 94.9112 169.483C96.8531 173.315 100.183 176.635 103.927 178.47C110.481 181.681 120.077 181.947 131.796 179.247C132.603 179.06 172.584 168.447 220.643 155.662C268.702 142.875 308.03 132.422 308.036 132.431C308.049 132.442 196.381 180.225 138.412 205.015C129.232 208.94 126.777 209.931 122.46 211.446C111.428 215.321 101.545 217.169 93.5565 216.852V216.852Z" fill="#94A1B2"/>
</svg>
