<svg width="375" height="347" viewBox="0 0 375 347" fill="none" xmlns="http://www.w3.org/2000/svg">
<path fill-rule="evenodd" clip-rule="evenodd" d="M85.1854 202.282L87.3307 204.316L89.0957 202.282H98.0002L99.9497 199.459H86.3379L85.9491 199.047H81.7327L81.4819 199.459H40.9112L39 202.282H85.1854ZM84.0624 196.499H78.4726L77.0084 195.087H43.7232L45.6451 192.238H74.1266L74.2368 191.612H79.8515L80.0003 192.238H104.676L102.726 195.087H82.9398C82.9398 195.087 83.0667 195.815 84.0624 196.499ZM76.5812 187.916H107.668L109.598 185.082H76.5342L76.9838 184.406H67.1001L66.6507 185.082H50.5596L48.6349 187.916H69.698L71.0242 189.14H77.596L76.5812 187.916ZM80.2865 180.424H112.755L114.688 177.585H82.2527L82.0183 176.984H72.2756L71.9032 177.585H55.6525L53.7359 180.424H68.7981C68.7981 180.424 69.8019 180.654 69.0987 181.619H79.2027L80.2865 180.424ZM85.5892 173.218H117.559L119.503 170.385H88.3443L88.1566 169.788H77.4128L77.0102 170.385H60.464L58.5339 173.218H73.9961C73.9961 173.218 74.7873 173.579 74.2359 174.33H85.1177C85.1177 174.33 85.1285 173.873 85.5892 173.218ZM90.4366 167.138H79.3922C80.0018 166.162 78.5319 166.002 78.5319 166.002H63.2682L65.1763 163.161H82.1252L82.5551 162.508H93.6686L94.1485 163.161H124.226L122.276 166.002H91.0958C91.0958 166.002 90.624 166.502 90.4366 167.138ZM98.1819 158.88H127.256L129.184 156.041H100.666L99.9494 154.812H88.0282L87.1127 156.041H70.1695L68.2419 158.88H83.3152C83.3152 158.88 85.1189 158.89 84.3025 160.051H97.7353C97.7353 160.051 97.7877 159.653 98.1819 158.88V158.88ZM101.08 148.899H133.909L131.971 151.735H103.959C103.167 151.735 102.635 152.927 102.635 152.927H89.3511C90.0241 151.794 88.5518 151.735 88.5518 151.735H72.9681L74.8709 148.899H99.4138L100.442 147.982L102.905 144.759H102.315L104.521 142H106.201L104.154 144.759H103.658L100.969 148.092L101.08 148.899ZM153.065 149.039L145.35 160.274H139.051L133.732 167.943H140.347L121.496 195.411C121.496 195.411 120.031 197.597 120.031 200.725C120.031 203.844 124.069 204.317 124.069 204.317H138.412L142.931 196.357H135.83C135.83 196.357 133.089 196.042 134.371 193.874C135.668 191.666 152.158 167.943 152.158 167.943H160.478L165.039 160.274H157.42L165.072 149.039L153.065 149.039ZM197.805 204.317L234.272 149.038H222.072L185.624 204.317H197.805ZM300.269 204.317L336.731 149.038H324.553L288.094 204.317H300.269ZM167.896 178.626H187.228C187.228 178.626 189.389 175.037 190.04 172.067C190.699 169.097 187.161 168.311 183.201 168.311C179.266 168.311 173.213 168.712 167.896 178.626ZM192.219 186.362H162.891C162.891 186.362 159.902 189.907 159.565 192.922C159.565 192.922 159.565 195.411 162.673 195.411H185.231L179.324 204.317H160.953C160.953 204.317 147.002 204.317 147.002 196.357C147.002 196.357 146.872 190.407 157.103 176.6C167.337 162.77 174.341 162.238 186.1 162.238C197.856 162.238 201.046 165.854 200.679 168.862C200.285 172.291 199.871 174.096 192.219 186.362H192.219ZM269.305 178.626H288.636C288.636 178.626 290.803 175.037 291.449 172.067C292.105 169.097 288.553 168.311 284.607 168.311C280.663 168.311 274.61 168.712 269.305 178.626ZM293.619 186.362H264.294C264.294 186.362 261.297 189.907 260.974 192.922C260.974 192.922 260.974 195.411 264.076 195.411H286.656L280.738 204.317H262.369C262.369 204.317 248.407 204.317 248.407 196.357C248.407 196.357 248.264 190.407 258.511 176.6C268.742 162.77 275.747 162.238 287.505 162.238C299.264 162.238 302.435 165.854 302.099 168.862C301.688 172.291 301.274 174.096 293.619 186.362ZM222.319 192.921C222.319 192.921 222.319 195.412 225.411 195.412H245.084L239.174 204.316H223.715C223.715 204.316 208.664 204.776 209.764 196.356C209.764 196.356 209.609 190.406 219.846 176.599C219.846 176.599 229.112 162.237 249.105 162.237H262.317L256.349 171.05H245.71C244.742 171.05 237.012 171.828 230.088 179.329C223.169 186.824 222.612 190.406 222.319 192.921Z" fill="#94A1B2"/>
</svg>
